<?xml version="1.0" standalone="no"?>
<!DOCTYPE svg PUBLIC "-//W3C//DTD SVG 20010904//EN"
 "http://www.w3.org/TR/2001/REC-SVG-20010904/DTD/svg10.dtd">
<svg version="1.0" xmlns="http://www.w3.org/2000/svg"
 width="241.000000pt" height="241.000000pt" viewBox="0 0 241.000000 241.000000"
 preserveAspectRatio="xMidYMid meet">
<metadata>
Created by potrace 1.14, written by Peter Selinger 2001-2017
</metadata>
<g transform="translate(0.000000,241.000000) scale(0.100000,-0.100000)"
fill="#000000" stroke="none">
<path d="M230 2138 c0 -10 266 -234 293 -247 242 -114 477 -232 475 -238 -1
-4 1 -30 6 -58 4 -27 10 -65 13 -84 2 -18 6 -42 8 -51 2 -10 7 -39 10 -64 l7
-46 94 0 c79 0 95 -3 103 -18 6 -11 6 -24 0 -35 -8 -14 -25 -17 -98 -17 l-89
0 5 -37 c3 -21 8 -42 13 -46 4 -5 42 -9 84 -10 85 -2 106 -16 82 -52 -12 -17
-23 -20 -85 -17 l-71 3 6 -43 c4 -24 9 -45 11 -48 2 -2 25 -5 51 -6 26 -1 55
-2 64 -3 10 -1 22 -10 28 -20 17 -33 -12 -52 -76 -48 -65 3 -63 11 -34 -160
11 -65 22 -136 25 -158 3 -22 7 -49 9 -60 5 -29 16 -94 21 -135 3 -19 7 -44 9
-55 2 -11 8 -47 12 -80 8 -65 17 -56 28 30 3 28 8 59 10 70 2 11 7 42 10 68 4
27 9 58 12 70 2 12 6 39 9 62 3 22 10 65 15 95 5 30 12 73 15 95 3 22 8 51 10
65 3 14 7 43 11 65 5 41 8 54 18 115 12 68 16 96 22 140 3 25 7 52 9 60 2 8 7
38 11 65 3 28 8 53 10 56 1 3 -162 170 -364 372 -336 336 -371 367 -402 368
-19 1 -44 3 -55 4 -11 1 -51 5 -90 9 -38 4 -86 9 -105 11 -98 11 -150 16 -150
13z"/>
<path d="M2148 2135 c-2 -1 -37 -6 -78 -9 -85 -8 -146 -14 -205 -21 -22 -2
-71 -7 -110 -10 -38 -4 -81 -8 -95 -10 -14 -2 -61 -7 -105 -10 -44 -4 -87 -8
-95 -10 -26 -7 -193 -20 -250 -20 -55 0 -231 15 -240 20 -3 2 -43 6 -90 10
l-85 6 305 -305 c167 -168 307 -303 310 -300 3 3 5 9 6 12 0 4 6 46 13 93 l14
86 51 23 c162 76 462 223 466 229 3 4 58 53 123 110 64 57 117 104 117 106 0
3 -48 3 -52 0z"/>
</g>
</svg>
